<svg width="167" height="400" viewBox="0 0 167 400" fill="none" xmlns="http://www.w3.org/2000/svg">
<path fill-rule="evenodd" clip-rule="evenodd" d="M81.2935 27.1898C93.2281 27.1898 102.903 21.1032 102.903 13.5949C102.903 12.8915 102.818 12.2006 102.654 11.526C102.749 11.5003 102.843 11.4744 102.938 11.4484V41.0233C102.938 41.0233 105.202 129.271 146.774 206.786C188.347 284.301 152.949 388.767 152.949 388.767C152.949 388.767 153.908 399.5 81.9109 399.5C9.91329 399.5 9.91329 388.767 9.91329 388.767C9.91329 388.767 -17.6647 267.367 19.1746 198.677C56.0139 129.987 59.9242 41.0233 59.9242 41.0233V15.6296C61.4851 22.1727 70.4579 27.1898 81.2935 27.1898ZM59.9242 11.5603V15.6296C59.7659 14.9659 59.6838 14.2864 59.6838 13.5949C59.6838 12.9034 59.7659 12.224 59.9242 11.5603ZM59.9499 11.4553C61.5812 4.96358 70.5159 0 81.2935 0C92.1101 0 101.071 4.99966 102.654 11.526C85.864 16.1157 76.467 15.9322 59.9499 11.4553ZM59.9499 11.4553C59.9411 11.4903 59.9326 11.5252 59.9242 11.5603V11.4484C59.9328 11.4507 59.9413 11.453 59.9499 11.4553Z" fill="#EDEFF3"/>
</svg>
